<?xml version="1.0" encoding="utf-8"?>
<!-- Generator: Adobe Illustrator 27.0.0, SVG Export Plug-In . SVG Version: 6.00 Build 0)  -->
<svg version="1.1" id="Capa_1" xmlns="http://www.w3.org/2000/svg" xmlns:xlink="http://www.w3.org/1999/xlink" x="0px" y="0px"
	 viewBox="0 0 759.1 723" style="enable-background:new 0 0 759.1 723;" xml:space="preserve">
<style type="text/css">
	.st0{fill:#252129;}
	.st1{fill:#48424F;}
	.st2{fill-rule:evenodd;clip-rule:evenodd;fill:#91839C;}
	.st3{fill:#91839C;}
	.st4{font-family:'ArialMT';}
	.st5{font-size:140px;}
</style>
<g id="root">
	<rect id="background.secondary" x="-0.4" y="0.5" class="st0" width="760" height="722"/>
	<rect id="shape.primary" x="294.5" y="341.2" class="st1" width="170" height="20.2"/>
	<g id="surface1">
		<path class="st2" d="M325.3,427.9c-2.6,0-5.4,1.4-6.5,4l0,0.1l-16.6,44.8c-4.4,1.1-7.7,4.9-7.7,9.4v16.2c0,6,1.7,10.8,4.8,14.2
			c2.3,2.6,5.4,4.2,8.8,4.9v3.6c0,7.1,6.1,13,13.6,13h115.6c7.5,0,13.6-5.8,13.6-13v-3.6c3.4-0.7,6.5-2.3,8.8-4.9
			c3.1-3.4,4.8-8.3,4.8-14.2v-16.2c0-4.5-3.3-8.3-7.7-9.4L440.2,432l0-0.1c-1.1-2.6-3.9-4-6.5-4c-0.4,0-0.7,0-1.1,0.1
			c-2.8,0.5-5.5,3.1-5.5,6.4v0.1l2.7,27.7l-6.6-5c-3-2.2-6.7-3.5-10.5-3.5H395c-2.6-5.7-8.6-9.7-15.5-9.7s-12.9,4-15.5,9.7h-17.2
			c-3.8,0-7.5,1.2-10.4,3.4l0,0l-7.1,5.2l2.7-27.9v-0.1c0-3.2-2.6-5.8-5.5-6.4C326.1,428,325.7,427.9,325.3,427.9L325.3,427.9z
			 M325,434.4l-3.2,33.5l-11.6,8.6h-0.8L325,434.4z M433.9,434.4l15.6,42.1h-0.8l-11.6-8.7L433.9,434.4L433.9,434.4z M379.5,453.8
			c5.7,0,10.2,4.3,10.2,9.7s-4.5,9.7-10.2,9.7s-10.2-4.3-10.2-9.7S373.8,453.8,379.5,453.8z M346.7,460.3h16.1
			c-0.2,1-0.4,2.1-0.4,3.2c0,3.7,1.3,7,3.5,9.7h-40.2l14.7-10.9l0,0C342.3,461,344.5,460.3,346.7,460.3z M379.5,460.3
			c-1.9,0-3.4,1.5-3.4,3.2s1.5,3.2,3.4,3.2s3.4-1.5,3.4-3.2S381.3,460.3,379.5,460.3z M396.1,460.3h16.4c2.3,0,4.5,0.7,6.3,2.1
			l14.5,10.9H393c2.2-2.7,3.5-6.1,3.5-9.7C396.5,462.4,396.4,461.4,396.1,460.3L396.1,460.3z M322.3,479.7h114.4l-47.8,22.7h-18.8
			L322.3,479.7z M304.7,483h3.9c-0.3,1-0.5,2.1-0.5,3.2v28.6c-1.4-0.5-2.6-1.2-3.6-2.4c-1.8-2-3.2-5.2-3.2-10v-16.2
			C301.3,484.3,302.7,483,304.7,483L304.7,483z M450.4,483h3.9c1.9,0,3.4,1.4,3.4,3.2v16.2c0,4.8-1.3,8-3.1,10
			c-1,1.1-2.3,1.9-3.6,2.4v-28.6C450.9,485.1,450.7,484,450.4,483L450.4,483z M315,485l34.4,42l0,0c1.4,1.6,4,1.7,5.5,0.2l0.1-0.1
			l15.8-18.3h17.2l15.8,18.3l0.1,0.1c1.5,1.4,4.1,1.3,5.5-0.2l0,0l34.4-42c0.1,0.4,0.1,0.8,0.1,1.2v38.9c0,3.6-3,6.5-6.8,6.5H321.7
			c-3.8,0-6.8-2.9-6.8-6.5v-38.9C314.9,485.8,314.9,485.4,315,485L315,485z M431.9,489.2l-25.3,30.9L395,506.7L431.9,489.2
			L431.9,489.2z M327.1,489.3l36.9,17.5l-11.6,13.4L327.1,489.3L327.1,489.3z"/>
	</g>
</g>
<text transform="matrix(1 0 0 1 192.69 269.69)" class="st3 st4 st5">ipoflyt</text>
</svg>
